<svg width="173" height="48" viewBox="0 0 173 48" fill="none" xmlns="http://www.w3.org/2000/svg">
<g clip-path="url(#clip0_0_1)">
<path d="M41.0263 12.0754L21.2164 0.638052C21.0422 0.536909 20.8279 0.536909 20.6537 0.638052L0.844131 12.0754C0.670303 12.1759 0.562988 12.3614 0.562988 12.5626V35.4377C0.562988 35.6386 0.670303 35.8245 0.844131 35.9249L20.6541 47.3623C20.7412 47.4127 20.8382 47.4377 20.9352 47.4377C21.0322 47.4377 21.1293 47.4127 21.2164 47.3623L41.0263 35.9249C41.2001 35.8245 41.3074 35.639 41.3074 35.4377V12.5626C41.3074 12.3614 41.2001 12.1755 41.0263 12.0754ZM22.0601 24L40.1825 13.5367V34.4633L22.0601 24ZM21.4975 23.0256V2.09897L39.6199 12.5623L21.4975 23.0253V23.0256ZM20.3726 23.0256L2.25053 12.5626L20.3726 2.09897V23.0256ZM19.81 24L1.6879 34.4633V13.5367L19.8103 24H19.81ZM20.3726 24.974V45.9007L2.25053 35.4374L20.3729 24.974H20.3726ZM21.4975 24.974L39.6199 35.4374L21.4975 45.9V24.974Z" fill="#BFBFBF"/>
<path d="M20.9352 31.1239C21.5568 31.1239 22.0601 30.6202 22.0601 29.999V24.6483L26.6897 21.9761C27.2283 21.6651 27.4124 20.9774 27.1015 20.4394C26.7915 19.9018 26.1044 19.7174 25.5648 20.0277L20.9352 22.6999L16.3059 20.027C15.767 19.7163 15.0792 19.9008 14.7689 20.4387C14.4583 20.9767 14.6427 21.6648 15.181 21.9754L19.8103 24.6483V29.9997C19.8103 30.6202 20.3139 31.1239 20.9352 31.1239Z" fill="url(#paint0_linear_0_1)"/>
<path d="M7.90183 15.1814C7.89291 15.1728 7.88057 15.1632 7.85966 15.1509L3.37543 12.5623L7.37109 10.2556C7.90903 9.94496 8.09314 9.25684 7.78286 8.7189C7.47257 8.18096 6.7848 7.99684 6.24617 8.30679L0.562629 11.5876C0.214629 11.7885 0 12.1598 0 12.562V19.125C0 19.7466 0.503657 20.2499 1.12491 20.2499C1.74617 20.2499 2.24983 19.7462 2.24983 19.125V14.5104L6.7344 17.1C6.81463 17.1467 6.89897 17.1786 6.984 17.2032C7.00937 17.2104 7.03406 17.2149 7.05977 17.2204C7.1232 17.2344 7.18663 17.2423 7.25006 17.2454C7.26549 17.2458 7.28057 17.2512 7.29566 17.2512C7.3056 17.2512 7.31143 17.2495 7.31657 17.2471C7.69851 17.2399 8.06674 17.0431 8.27109 16.6886C8.5728 16.1651 8.40446 15.504 7.90114 15.1814H7.90183Z" fill="url(#paint1_linear_0_1)"/>
<path d="M6.82457 30.8592C6.80983 30.8609 6.7848 30.8708 6.7344 30.8993L2.24983 33.4879V28.8747C2.24983 28.2531 1.74617 27.7498 1.12491 27.7498C0.503657 27.7498 0 28.2535 0 28.8751V35.4377C0 35.8395 0.214629 36.2112 0.562629 36.4118L6.24583 39.6936C6.42309 39.7958 6.61646 39.8444 6.80709 39.8444C7.19554 39.8441 7.57406 39.6425 7.78217 39.2815C8.0928 38.7435 7.90903 38.0551 7.3704 37.7444L3.3744 35.4374L7.85897 32.8478C7.89497 32.8272 7.91657 32.8107 7.92926 32.797C8.4096 32.4682 8.56663 31.8236 8.27074 31.3114C7.97794 30.8026 7.34709 30.6154 6.82457 30.8592Z" fill="url(#paint2_linear_0_1)"/>
<path d="M27.1814 3.43169L21.4975 0.150551C21.1495 -0.0500208 20.7203 -0.0500208 20.3726 0.150551L14.6891 3.43169C14.1511 3.74266 13.967 4.43044 14.2773 4.96872C14.5883 5.50666 15.276 5.69112 15.814 5.38015L19.81 3.07341V8.24986C19.81 8.87112 20.3136 9.37478 20.9349 9.37478C21.5562 9.37478 22.0598 8.87112 22.0598 8.24986V3.07375L26.0558 5.38049C26.2331 5.48301 26.4264 5.53135 26.6167 5.53135C27.0055 5.53135 27.3844 5.32941 27.5922 4.96872C27.9031 4.43044 27.7183 3.74232 27.1804 3.43169H27.1814Z" fill="url(#paint3_linear_0_1)"/>
<path d="M40.7451 27.7498C40.1235 27.7498 39.6202 28.2535 39.6202 28.8747V33.4886L35.1363 30.9C35.0664 30.8599 35.028 30.8427 35.0112 30.8434C34.4952 30.624 33.8873 30.8143 33.5993 31.3114C33.3048 31.8219 33.4594 32.4634 33.935 32.7936C33.9514 32.81 33.9758 32.8279 34.0107 32.8481L38.4946 35.4374L34.499 37.7444C33.9603 38.0551 33.7766 38.7428 34.0872 39.2811C34.2956 39.6422 34.6728 39.8441 35.0623 39.8441C35.2536 39.8441 35.4463 39.7954 35.6235 39.6929L41.3067 36.4118C41.6547 36.2112 41.8694 35.8406 41.8694 35.4377V28.8751C41.8697 28.2535 41.366 27.7502 40.7448 27.7502L40.7451 27.7498Z" fill="url(#paint4_linear_0_1)"/>
<path d="M41.8618 12.4992C41.8402 12.1224 41.6369 11.7782 41.3077 11.5879L35.6245 8.30712C35.0855 7.99684 34.3978 8.18129 34.0878 8.71924C33.7769 9.25718 33.961 9.94529 34.4996 10.2559L38.4953 12.5627L34.0114 15.1512C33.9757 15.1722 33.951 15.1903 33.9329 15.2078C33.4594 15.5383 33.3047 16.1788 33.5993 16.6883C33.8081 17.049 34.1852 17.2509 34.5747 17.2509C34.718 17.2509 34.8603 17.2135 34.9985 17.1566C35.0156 17.1611 35.0561 17.146 35.1363 17.0997L39.6202 14.5104V19.125C39.6202 19.7466 40.1238 20.2499 40.7451 20.2499C41.3663 20.2499 41.87 19.7462 41.87 19.125V12.562C41.87 12.5328 41.8666 12.5133 41.8614 12.4989L41.8618 12.4992Z" fill="url(#paint5_linear_0_1)"/>
<path d="M26.0562 42.6189L22.0602 44.9263V39.7495C22.0602 39.7029 22.0564 39.6765 22.0513 39.659C22.0043 39.0806 21.526 38.6246 20.9349 38.6246C20.3438 38.6246 19.8655 39.0809 19.8186 39.659C19.8134 39.6765 19.8097 39.7029 19.8097 39.7495V44.9263L15.8137 42.6195C15.2754 42.3086 14.5876 42.4927 14.277 43.0317C13.9663 43.5703 14.1508 44.2581 14.6887 44.5687L20.3723 47.8498C20.5461 47.9503 20.7409 48 20.9349 48C21.129 48 21.3234 47.9499 21.4975 47.8491L27.1811 44.568C27.719 44.2574 27.9035 43.5689 27.5929 43.031C27.2822 42.4923 26.5951 42.3079 26.0562 42.6189Z" fill="url(#paint6_linear_0_1)"/>
</g>
<path d="M57.5329 33.9174L59.2491 15.0955H63.8661L62.1499 33.9174H57.5329ZM60.3499 26.7113L60.7006 22.8662H70.5286L70.1779 26.7113H60.3499ZM61.0389 19.1556L61.4091 15.0955H72.3171L71.9469 19.1556H61.0389ZM74.1343 33.9174L75.4362 19.6396H79.7832L78.4813 33.9174H74.1343ZM77.8806 16.8163C77.0526 16.8163 76.4218 16.6281 75.9881 16.2517C75.5741 15.8573 75.3997 15.3016 75.4651 14.5846C75.5256 13.9213 75.8086 13.3836 76.3142 12.9713C76.8198 12.559 77.4776 12.3528 78.2876 12.3528C79.0796 12.3528 79.6826 12.55 80.0967 12.9444C80.5304 13.3208 80.7145 13.8675 80.6491 14.5846C80.5887 15.2478 80.3056 15.7856 79.8 16.1979C79.3124 16.6102 78.6726 16.8163 77.8806 16.8163ZM82.6661 33.9174L84.4804 14.0199H88.8274L87.0131 33.9174H82.6661ZM97.5091 34.1863C95.9251 34.1863 94.5677 33.8726 93.4369 33.2452C92.3241 32.6178 91.4936 31.7573 90.9453 30.6639C90.4166 29.5525 90.2169 28.2887 90.346 26.8726C90.4473 25.7612 90.7197 24.7484 91.163 23.8342C91.608 22.9021 92.1848 22.1044 92.8933 21.4411C93.6197 20.7779 94.4403 20.267 95.355 19.9085C96.2893 19.532 97.2875 19.3438 98.3495 19.3438C99.3575 19.3438 100.259 19.5231 101.054 19.8816C101.85 20.2401 102.524 20.742 103.077 21.3874C103.63 22.0327 104.029 22.7945 104.273 23.6729C104.517 24.5512 104.582 25.5102 104.469 26.5499L104.335 27.733H92.9405L92.5156 25.2862H101.021L100.518 25.7702L100.567 25.2324C100.571 24.7843 100.463 24.3989 100.24 24.0762C100.037 23.7356 99.7466 23.4667 99.3685 23.2695C99.0085 23.0724 98.5855 22.9738 98.0995 22.9738C97.3795 22.9738 96.7544 23.1172 96.2243 23.404C95.7138 23.6729 95.3088 24.0672 95.0094 24.5871C94.71 25.1069 94.5252 25.7522 94.4549 26.523C94.3846 27.2938 94.4845 27.975 94.7545 28.5666C95.0426 29.1581 95.4869 29.6152 96.0875 29.9379C96.7061 30.2605 97.4564 30.4219 98.3384 30.4219C98.9324 30.4219 99.4805 30.3322 99.9829 30.153C100.485 29.9737 101.035 29.669 101.632 29.2388L103.397 32.089C102.797 32.555 102.167 32.9494 101.507 33.272C100.85 33.5768 100.181 33.8009 99.5022 33.9443C98.8395 34.1056 98.1751 34.1863 97.5091 34.1863ZM113.348 34.1863C111.476 34.1863 109.921 33.8636 108.684 33.2183C107.467 32.555 106.454 31.6229 105.645 30.4219L108.74 27.2759C109.512 28.4769 110.33 29.2836 111.192 29.6959C112.055 30.1082 112.963 30.3143 113.917 30.3143C114.403 30.3143 114.841 30.2516 115.23 30.1261C115.637 30.0006 115.96 29.8214 116.197 29.5883C116.454 29.3374 116.598 29.0416 116.629 28.701C116.653 28.4321 116.604 28.1901 116.479 27.975C116.373 27.7599 116.21 27.5717 115.991 27.4104C115.771 27.249 115.514 27.1056 115.22 26.9802C114.927 26.8367 114.596 26.7202 114.226 26.6306C113.874 26.541 113.512 26.4603 113.141 26.3886C112.116 26.1735 111.233 25.8956 110.49 25.5551C109.767 25.1965 109.166 24.7753 108.688 24.2913C108.23 23.7894 107.903 23.2247 107.709 22.5973C107.515 21.952 107.456 21.226 107.529 20.4194C107.634 19.2721 108.049 18.2683 108.776 17.4079C109.52 16.5474 110.454 15.8752 111.579 15.3912C112.703 14.9072 113.895 14.6652 115.155 14.6652C116.991 14.6652 118.44 14.961 119.502 15.5526C120.584 16.1262 121.411 16.9239 121.984 17.9456L118.869 20.7151C118.377 19.9981 117.787 19.4603 117.099 19.1018C116.43 18.7433 115.708 18.5641 114.934 18.5641C114.412 18.5641 113.948 18.6268 113.54 18.7523C113.133 18.8778 112.81 19.066 112.571 19.3169C112.351 19.55 112.226 19.8368 112.195 20.1774C112.169 20.4642 112.226 20.7241 112.367 20.9571C112.527 21.1722 112.753 21.3605 113.045 21.5218C113.336 21.6831 113.674 21.8265 114.058 21.952C114.445 22.0596 114.85 22.1492 115.276 22.2209C116.248 22.4181 117.115 22.678 117.878 23.0007C118.658 23.3233 119.315 23.7266 119.846 24.2106C120.38 24.6767 120.77 25.2324 121.017 25.8777C121.284 26.5051 121.38 27.2311 121.305 28.0557C121.187 29.3463 120.772 30.4488 120.058 31.363C119.345 32.2772 118.408 32.9763 117.248 33.4603C116.088 33.9443 114.788 34.1863 113.348 34.1863ZM125.16 40.1017L129.123 32.4654L128.971 34.724L123.408 19.6396H128.322L130.689 26.8457C130.82 27.1863 130.938 27.5717 131.042 28.0019C131.147 28.4321 131.218 28.8355 131.256 29.2119L130.603 29.5614C130.736 29.2926 130.884 28.952 131.047 28.5397C131.229 28.1274 131.422 27.6882 131.626 27.2221L134.964 19.6396H139.905L132.528 33.9174L129.507 40.1017H125.16ZM140.758 33.9174L142.059 19.6396H146.19L146.088 22.5436L145.167 22.8662C145.424 22.2209 145.828 21.6383 146.38 21.1185C146.951 20.5807 147.611 20.1505 148.36 19.8278C149.11 19.5052 149.88 19.3438 150.672 19.3438C151.752 19.3438 152.641 19.5679 153.338 20.016C154.037 20.4463 154.526 21.1005 154.806 21.9789C155.106 22.8393 155.197 23.9059 155.081 25.1786L154.285 33.9174H149.938L150.705 25.5013C150.757 24.9277 150.72 24.4526 150.592 24.0762C150.464 23.6998 150.247 23.4219 149.939 23.2427C149.631 23.0634 149.234 22.9827 148.746 23.0007C148.368 23.0007 148.011 23.0634 147.676 23.1889C147.342 23.2964 147.038 23.4667 146.765 23.6998C146.512 23.9149 146.309 24.1658 146.157 24.4526C146.004 24.7394 145.912 25.0621 145.879 25.4206L145.105 33.9174H142.918C142.45 33.9174 142.027 33.9174 141.649 33.9174C141.289 33.9174 140.992 33.9174 140.758 33.9174ZM164.289 34.1863C162.903 34.1863 161.681 33.8636 160.624 33.2183C159.585 32.5729 158.801 31.6946 158.273 30.5832C157.746 29.4539 157.546 28.1901 157.673 26.7919C157.804 25.3579 158.235 24.0852 158.966 22.9738C159.699 21.8445 160.644 20.9571 161.801 20.3118C162.976 19.6665 164.256 19.3438 165.642 19.3438C166.92 19.3438 168.069 19.5769 169.089 20.0429C170.128 20.4911 170.917 21.1095 171.457 21.8982L168.849 24.7484C168.642 24.4437 168.38 24.1658 168.061 23.9149C167.741 23.6639 167.381 23.4667 166.981 23.3233C166.58 23.1799 166.154 23.1082 165.704 23.1082C165.02 23.1082 164.402 23.2695 163.851 23.5922C163.301 23.8969 162.857 24.3272 162.518 24.8829C162.18 25.4385 161.978 26.0659 161.915 26.765C161.853 27.4462 161.94 28.0647 162.178 28.6203C162.435 29.1581 162.809 29.5883 163.302 29.911C163.794 30.2337 164.365 30.395 165.013 30.395C165.481 30.395 165.918 30.3322 166.326 30.2068C166.733 30.0813 167.11 29.902 167.455 29.669C167.818 29.436 168.159 29.1581 168.476 28.8355L170.565 31.6856C169.884 32.4385 168.974 33.048 167.833 33.514C166.694 33.9622 165.513 34.1863 164.289 34.1863Z" fill="url(#paint7_linear_0_1)"/>
<defs>
<linearGradient id="paint0_linear_0_1" x1="24.4054" y1="30.2718" x2="12.0515" y2="29.8138" gradientUnits="userSpaceOnUse">
<stop stop-color="#3A71CB"/>
<stop offset="1" stop-color="#6B99E6"/>
</linearGradient>
<linearGradient id="paint1_linear_0_1" x1="6.52342" y1="19.3337" x2="-1.71759" y2="19.1443" gradientUnits="userSpaceOnUse">
<stop stop-color="#3A71CB"/>
<stop offset="1" stop-color="#6B99E6"/>
</linearGradient>
<linearGradient id="paint2_linear_0_1" x1="6.52299" y1="38.9282" x2="-1.71748" y2="38.7388" gradientUnits="userSpaceOnUse">
<stop stop-color="#3A71CB"/>
<stop offset="1" stop-color="#6B99E6"/>
</linearGradient>
<linearGradient id="paint3_linear_0_1" x1="24.6747" y1="8.66458" x2="11.3729" y2="8.02689" gradientUnits="userSpaceOnUse">
<stop stop-color="#3A71CB"/>
<stop offset="1" stop-color="#6B99E6"/>
</linearGradient>
<linearGradient id="paint4_linear_0_1" x1="39.9719" y1="38.9279" x2="31.7323" y2="38.7385" gradientUnits="userSpaceOnUse">
<stop stop-color="#3A71CB"/>
<stop offset="1" stop-color="#6B99E6"/>
</linearGradient>
<linearGradient id="paint5_linear_0_1" x1="39.9724" y1="19.3337" x2="31.732" y2="19.1443" gradientUnits="userSpaceOnUse">
<stop stop-color="#3A71CB"/>
<stop offset="1" stop-color="#6B99E6"/>
</linearGradient>
<linearGradient id="paint6_linear_0_1" x1="24.675" y1="47.2897" x2="11.3722" y2="46.652" gradientUnits="userSpaceOnUse">
<stop stop-color="#3A71CB"/>
<stop offset="1" stop-color="#6B99E6"/>
</linearGradient>
<linearGradient id="paint7_linear_0_1" x1="145.181" y1="32.4085" x2="40.0463" y2="2.61272" gradientUnits="userSpaceOnUse">
<stop stop-color="#3A71CB"/>
<stop offset="1" stop-color="#6B99E6"/>
</linearGradient>
<clipPath id="clip0_0_1">
<rect width="41.8704" height="48" fill="white"/>
</clipPath>
</defs>
</svg>
