<svg width="181" height="48" viewBox="0 0 181 48" fill="none" xmlns="http://www.w3.org/2000/svg">
<g clip-path="url(#clip0_702_23341)">
<path d="M41.0263 12.0755L21.2164 0.638113C21.0422 0.53697 20.8279 0.53697 20.6537 0.638113L0.844131 12.0755C0.670303 12.1759 0.562988 12.3614 0.562988 12.5627V35.4378C0.562988 35.6387 0.670303 35.8245 0.844131 35.925L20.6541 47.3623C20.7412 47.4127 20.8382 47.4378 20.9352 47.4378C21.0322 47.4378 21.1293 47.4127 21.2164 47.3623L41.0263 35.925C41.2001 35.8245 41.3074 35.639 41.3074 35.4378V12.5627C41.3074 12.3614 41.2001 12.1756 41.0263 12.0755ZM22.0601 24.0001L40.1825 13.5367V34.4634L22.0601 24.0001ZM21.4975 23.0257V2.09903L39.6199 12.5623L21.4975 23.0253V23.0257ZM20.3726 23.0257L2.25053 12.5627L20.3726 2.09903V23.0257ZM19.81 24.0001L1.6879 34.4634V13.5367L19.8103 24.0001H19.81ZM20.3726 24.9741V45.9007L2.25053 35.4374L20.3729 24.9741H20.3726ZM21.4975 24.9741L39.6199 35.4374L21.4975 45.9001V24.9741Z" fill="#BFBFBF"/>
<path d="M20.9353 31.1239C21.5569 31.1239 22.0602 30.6202 22.0602 29.999V24.6483L26.6898 21.9761C27.2284 21.6651 27.4126 20.9774 27.1016 20.4394C26.7916 19.9018 26.1046 19.7174 25.5649 20.0277L20.9353 22.6999L16.306 20.027C15.7671 19.7163 15.0793 19.9008 14.769 20.4387C14.4584 20.9767 14.6428 21.6648 15.1811 21.9754L19.8104 24.6483V29.9997C19.8104 30.6202 20.314 31.1239 20.9353 31.1239Z" fill="url(#paint0_linear_702_23341)"/>
<path d="M7.90183 15.1814C7.89291 15.1728 7.88057 15.1632 7.85966 15.1508L3.37543 12.5623L7.37109 10.2555C7.90903 9.9449 8.09314 9.25678 7.78286 8.71884C7.47257 8.1809 6.7848 7.99678 6.24617 8.30673L0.562629 11.5875C0.214629 11.7884 0 12.1598 0 12.5619V19.1249C0 19.7465 0.503657 20.2498 1.12491 20.2498C1.74617 20.2498 2.24983 19.7462 2.24983 19.1249V14.5104L6.7344 17.1C6.81463 17.1466 6.89897 17.1785 6.984 17.2032C7.00937 17.2104 7.03406 17.2148 7.05977 17.2203C7.1232 17.2344 7.18663 17.2423 7.25006 17.2454C7.26549 17.2457 7.28057 17.2512 7.29566 17.2512C7.3056 17.2512 7.31143 17.2495 7.31657 17.2471C7.69851 17.2399 8.06674 17.0431 8.27109 16.6886C8.5728 16.165 8.40446 15.504 7.90114 15.1814H7.90183Z" fill="url(#paint1_linear_702_23341)"/>
<path d="M6.82457 30.8592C6.80983 30.861 6.7848 30.8709 6.7344 30.8994L2.24983 33.4879V28.8748C2.24983 28.2532 1.74617 27.7499 1.12491 27.7499C0.503657 27.7499 0 28.2535 0 28.8751V35.4378C0 35.8396 0.214629 36.2113 0.562629 36.4118L6.24583 39.6936C6.42309 39.7958 6.61646 39.8445 6.80709 39.8445C7.19554 39.8442 7.57406 39.6426 7.78217 39.2815C8.0928 38.7436 7.90903 38.0551 7.3704 37.7445L3.3744 35.4374L7.85897 32.8478C7.89497 32.8273 7.91657 32.8108 7.92926 32.7971C8.4096 32.4683 8.56663 31.8237 8.27074 31.3115C7.97794 30.8027 7.34709 30.6155 6.82457 30.8592Z" fill="url(#paint2_linear_702_23341)"/>
<path d="M27.1813 3.43169L21.4974 0.150551C21.1494 -0.0500208 20.7202 -0.0500208 20.3725 0.150551L14.689 3.43169C14.151 3.74266 13.9669 4.43044 14.2772 4.96872C14.5882 5.50666 15.2759 5.69112 15.8139 5.38015L19.8099 3.07341V8.24986C19.8099 8.87112 20.3135 9.37478 20.9348 9.37478C21.556 9.37478 22.0597 8.87112 22.0597 8.24986V3.07375L26.0557 5.38049C26.233 5.48301 26.4263 5.53135 26.6166 5.53135C27.0054 5.53135 27.3843 5.32941 27.592 4.96872C27.903 4.43044 27.7182 3.74232 27.1803 3.43169H27.1813Z" fill="url(#paint3_linear_702_23341)"/>
<path d="M40.7452 27.7499C40.1236 27.7499 39.6203 28.2535 39.6203 28.8748V33.4886L35.1364 30.9C35.0665 30.8599 35.0281 30.8428 35.0113 30.8435C34.4953 30.624 33.8874 30.8143 33.5994 31.3115C33.3049 31.822 33.4595 32.4635 33.9351 32.7936C33.9515 32.8101 33.9759 32.8279 34.0108 32.8482L38.4947 35.4374L34.4991 37.7445C33.9604 38.0551 33.7767 38.7429 34.0873 39.2812C34.2958 39.6422 34.6729 39.8442 35.0624 39.8442C35.2537 39.8442 35.4464 39.7955 35.6236 39.693L41.3068 36.4118C41.6548 36.2113 41.8695 35.8406 41.8695 35.4378V28.8751C41.8698 28.2535 41.3662 27.7502 40.7449 27.7502L40.7452 27.7499Z" fill="url(#paint4_linear_702_23341)"/>
<path d="M41.8618 12.4992C41.8402 12.1224 41.6369 11.7782 41.3077 11.5879L35.6245 8.30712C35.0855 7.99684 34.3978 8.18129 34.0878 8.71924C33.7769 9.25718 33.961 9.94529 34.4996 10.2559L38.4953 12.5627L34.0114 15.1512C33.9757 15.1722 33.951 15.1903 33.9329 15.2078C33.4594 15.5383 33.3047 16.1788 33.5993 16.6883C33.8081 17.049 34.1852 17.2509 34.5747 17.2509C34.718 17.2509 34.8603 17.2135 34.9985 17.1566C35.0156 17.1611 35.0561 17.146 35.1363 17.0997L39.6202 14.5104V19.125C39.6202 19.7466 40.1238 20.2499 40.7451 20.2499C41.3663 20.2499 41.87 19.7462 41.87 19.125V12.562C41.87 12.5328 41.8666 12.5133 41.8614 12.4989L41.8618 12.4992Z" fill="url(#paint5_linear_702_23341)"/>
<path d="M26.056 42.6189L22.06 44.9263V39.7495C22.06 39.7029 22.0563 39.6765 22.0511 39.659C22.0042 39.0806 21.5259 38.6246 20.9348 38.6246C20.3437 38.6246 19.8654 39.081 19.8184 39.659C19.8133 39.6765 19.8095 39.7029 19.8095 39.7495V44.9263L15.8135 42.6196C15.2752 42.3086 14.5875 42.4927 14.2768 43.0317C13.9662 43.5703 14.1507 44.2581 14.6886 44.5687L20.3722 47.8499C20.546 47.9503 20.7407 48.0001 20.9348 48.0001C21.1288 48.0001 21.3232 47.95 21.4974 47.8492L27.181 44.5681C27.7189 44.2574 27.9034 43.569 27.5927 43.031C27.2821 42.4924 26.595 42.3079 26.056 42.6189Z" fill="url(#paint6_linear_702_23341)"/>
</g>
<path d="M57.5329 33.9174L59.2491 15.0955H63.8661L62.1499 33.9174H57.5329ZM60.3499 26.7113L60.7006 22.8662H70.5286L70.1779 26.7113H60.3499ZM61.0389 19.1556L61.4091 15.0955H72.3171L71.9469 19.1556H61.0389ZM74.1343 33.9174L75.4362 19.6396H79.7832L78.4813 33.9174H74.1343ZM77.8806 16.8163C77.0526 16.8163 76.4218 16.6281 75.9881 16.2517C75.5741 15.8573 75.3997 15.3016 75.4651 14.5846C75.5256 13.9213 75.8086 13.3836 76.3142 12.9713C76.8198 12.559 77.4776 12.3528 78.2876 12.3528C79.0796 12.3528 79.6826 12.55 80.0967 12.9444C80.5304 13.3208 80.7145 13.8675 80.6491 14.5846C80.5887 15.2478 80.3056 15.7856 79.8 16.1979C79.3124 16.6102 78.6726 16.8163 77.8806 16.8163ZM82.6661 33.9174L84.4804 14.0199H88.8274L87.0131 33.9174H82.6661ZM97.5091 34.1863C95.9251 34.1863 94.5677 33.8726 93.4369 33.2452C92.3241 32.6178 91.4936 31.7573 90.9453 30.6639C90.4166 29.5525 90.2169 28.2887 90.346 26.8726C90.4473 25.7612 90.7197 24.7484 91.163 23.8342C91.608 22.9021 92.1848 22.1044 92.8933 21.4411C93.6197 20.7779 94.4403 20.267 95.355 19.9085C96.2893 19.532 97.2875 19.3438 98.3495 19.3438C99.3575 19.3438 100.259 19.5231 101.054 19.8816C101.85 20.2401 102.524 20.742 103.077 21.3874C103.63 22.0327 104.029 22.7945 104.273 23.6729C104.517 24.5512 104.582 25.5102 104.469 26.5499L104.335 27.733H92.9405L92.5156 25.2862H101.021L100.518 25.7702L100.567 25.2324C100.571 24.7843 100.463 24.3989 100.24 24.0762C100.037 23.7356 99.7466 23.4667 99.3685 23.2695C99.0085 23.0724 98.5855 22.9738 98.0995 22.9738C97.3795 22.9738 96.7544 23.1172 96.2243 23.404C95.7138 23.6729 95.3088 24.0672 95.0094 24.5871C94.71 25.1069 94.5252 25.7522 94.4549 26.523C94.3846 27.2938 94.4845 27.975 94.7545 28.5666C95.0426 29.1581 95.4869 29.6152 96.0875 29.9379C96.7061 30.2605 97.4564 30.4219 98.3384 30.4219C98.9324 30.4219 99.4805 30.3322 99.9829 30.153C100.485 29.9737 101.035 29.669 101.632 29.2388L103.397 32.089C102.797 32.555 102.167 32.9494 101.507 33.272C100.85 33.5768 100.181 33.8009 99.5022 33.9443C98.8395 34.1056 98.1751 34.1863 97.5091 34.1863ZM107.081 33.9174L108.798 15.0955H116.763C118.149 15.0955 119.396 15.3285 120.506 15.7946C121.617 16.2427 122.548 16.888 123.299 17.7305C124.052 18.5551 124.6 19.55 124.944 20.7151C125.29 21.8624 125.399 23.1261 125.273 24.5064C125.146 25.9046 124.805 27.1773 124.25 28.3246C123.696 29.4718 122.966 30.4667 122.061 31.3092C121.158 32.1338 120.109 32.7791 118.915 33.2452C117.74 33.6933 116.45 33.9174 115.046 33.9174H107.081ZM111.988 30.7445L111.475 29.8572H115.282C116.02 29.8572 116.697 29.7317 117.314 29.4808C117.931 29.2298 118.467 28.8713 118.924 28.4052C119.4 27.9212 119.776 27.3566 120.05 26.7113C120.345 26.048 120.529 25.3131 120.602 24.5064C120.676 23.6998 120.625 22.9738 120.45 22.3284C120.295 21.6652 120.022 21.1005 119.632 20.6345C119.263 20.1505 118.792 19.783 118.221 19.532C117.65 19.2811 116.995 19.1556 116.257 19.1556H112.369L113.12 18.3221L111.988 30.7445ZM127.606 33.9174L128.908 19.6396H133.039L132.803 24.2913L132.077 23.3771C132.379 22.6242 132.802 21.943 133.343 21.3336C133.885 20.7241 134.505 20.2401 135.204 19.8816C135.92 19.5231 136.648 19.3438 137.386 19.3438C137.71 19.3438 138.004 19.3707 138.269 19.4245C138.554 19.4603 138.8 19.5231 139.008 19.6127L137.413 24.372C137.225 24.2644 136.963 24.1748 136.628 24.1031C136.312 24.0135 135.974 23.9686 135.614 23.9686C135.218 23.9686 134.842 24.0403 134.487 24.1838C134.152 24.3092 133.847 24.4975 133.572 24.7484C133.315 24.9994 133.099 25.2951 132.924 25.6357C132.767 25.9763 132.669 26.3617 132.629 26.7919L131.98 33.9174H127.606ZM140.262 33.9174L141.564 19.6396H145.911L144.609 33.9174H140.262ZM144.009 16.8163C143.181 16.8163 142.55 16.6281 142.116 16.2517C141.702 15.8573 141.528 15.3016 141.593 14.5846C141.654 13.9213 141.937 13.3836 142.442 12.9713C142.948 12.559 143.606 12.3528 144.416 12.3528C145.208 12.3528 145.811 12.55 146.225 12.9444C146.658 13.3208 146.842 13.8675 146.777 14.5846C146.717 15.2478 146.434 15.7856 145.928 16.1979C145.44 16.6102 144.801 16.8163 144.009 16.8163ZM153.222 33.9174L148.53 19.6396H153.309L155.909 30.2068L154.844 30.3412L159.492 19.6396H164.244L156.624 33.9174H153.222ZM171.705 34.1863C170.121 34.1863 168.764 33.8726 167.633 33.2452C166.52 32.6178 165.69 31.7573 165.142 30.6639C164.613 29.5525 164.413 28.2887 164.542 26.8726C164.644 25.7612 164.916 24.7484 165.359 23.8342C165.804 22.9021 166.381 22.1044 167.09 21.4411C167.816 20.7779 168.637 20.267 169.551 19.9085C170.486 19.532 171.484 19.3438 172.546 19.3438C173.554 19.3438 174.455 19.5231 175.251 19.8816C176.046 20.2401 176.72 20.742 177.273 21.3874C177.827 22.0327 178.225 22.7945 178.469 23.6729C178.713 24.5512 178.779 25.5102 178.666 26.5499L178.531 27.733H167.137L166.712 25.2862H175.217L174.714 25.7702L174.763 25.2324C174.768 24.7843 174.659 24.3989 174.436 24.0762C174.233 23.7356 173.943 23.4667 173.565 23.2695C173.205 23.0724 172.782 22.9738 172.296 22.9738C171.576 22.9738 170.951 23.1172 170.421 23.404C169.91 23.6729 169.505 24.0672 169.206 24.5871C168.906 25.1069 168.721 25.7522 168.651 26.523C168.581 27.2938 168.681 27.975 168.951 28.5666C169.239 29.1581 169.683 29.6152 170.284 29.9379C170.902 30.2605 171.653 30.4219 172.535 30.4219C173.129 30.4219 173.677 30.3322 174.179 30.153C174.682 29.9737 175.231 29.669 175.829 29.2388L177.594 32.089C176.993 32.555 176.363 32.9494 175.704 33.272C175.046 33.5768 174.378 33.8009 173.698 33.9443C173.036 34.1056 172.371 34.1863 171.705 34.1863Z" fill="url(#paint7_linear_702_23341)"/>
<defs>
<linearGradient id="paint0_linear_702_23341" x1="24.4055" y1="30.2718" x2="12.0516" y2="29.8138" gradientUnits="userSpaceOnUse">
<stop stop-color="#3A71CB"/>
<stop offset="1" stop-color="#6B99E6"/>
</linearGradient>
<linearGradient id="paint1_linear_702_23341" x1="6.52342" y1="19.3336" x2="-1.71759" y2="19.1442" gradientUnits="userSpaceOnUse">
<stop stop-color="#3A71CB"/>
<stop offset="1" stop-color="#6B99E6"/>
</linearGradient>
<linearGradient id="paint2_linear_702_23341" x1="6.52299" y1="38.9282" x2="-1.71748" y2="38.7389" gradientUnits="userSpaceOnUse">
<stop stop-color="#3A71CB"/>
<stop offset="1" stop-color="#6B99E6"/>
</linearGradient>
<linearGradient id="paint3_linear_702_23341" x1="24.6745" y1="8.66458" x2="11.3727" y2="8.02689" gradientUnits="userSpaceOnUse">
<stop stop-color="#3A71CB"/>
<stop offset="1" stop-color="#6B99E6"/>
</linearGradient>
<linearGradient id="paint4_linear_702_23341" x1="39.9721" y1="38.9279" x2="31.7324" y2="38.7386" gradientUnits="userSpaceOnUse">
<stop stop-color="#3A71CB"/>
<stop offset="1" stop-color="#6B99E6"/>
</linearGradient>
<linearGradient id="paint5_linear_702_23341" x1="39.9724" y1="19.3337" x2="31.732" y2="19.1443" gradientUnits="userSpaceOnUse">
<stop stop-color="#3A71CB"/>
<stop offset="1" stop-color="#6B99E6"/>
</linearGradient>
<linearGradient id="paint6_linear_702_23341" x1="24.6748" y1="47.2898" x2="11.372" y2="46.6521" gradientUnits="userSpaceOnUse">
<stop stop-color="#3A71CB"/>
<stop offset="1" stop-color="#6B99E6"/>
</linearGradient>
<linearGradient id="paint7_linear_702_23341" x1="151.378" y1="32.4085" x2="39.7871" y2="-0.696382" gradientUnits="userSpaceOnUse">
<stop stop-color="#3A71CB"/>
<stop offset="1" stop-color="#6B99E6"/>
</linearGradient>
<clipPath id="clip0_702_23341">
<rect width="41.8704" height="48" fill="white"/>
</clipPath>
</defs>
</svg>
