<svg width="18" height="18" viewBox="0 0 18 18" fill="none" xmlns="http://www.w3.org/2000/svg">
<path d="M13.875 8.25C14.0025 8.25 14.1225 8.2575 14.2425 8.265L10.875 2.25H6.375L10.635 9.63C11.4525 8.7825 12.6 8.25 13.875 8.25Z" fill="#4285F4"/>
<path d="M5.7375 3.39L1.125 11.625L3.375 15.75L8.1225 7.5225L5.7375 3.39Z" fill="#4285F4"/>
<path d="M9.525 11.625H7.05L4.6725 15.75H10.53C9.81 14.955 9.375 13.905 9.375 12.75C9.375 12.36 9.4275 11.985 9.525 11.625Z" fill="#4285F4"/>
<path d="M14.625 12V9.75H13.125V12H10.875V13.5H13.125V15.75H14.625V13.5H16.875V12H14.625Z" fill="#4285F4"/>
</svg>
