<svg width="32" height="32" viewBox="0 0 32 32" fill="none" xmlns="http://www.w3.org/2000/svg">
<path d="M20.6666 1.33333H5.99992C4.53325 1.33333 3.33325 2.53333 3.33325 3.99999V21.3333C3.33325 22.0667 3.93325 22.6667 4.66659 22.6667C5.39992 22.6667 5.99992 22.0667 5.99992 21.3333V5.33333C5.99992 4.59999 6.59992 3.99999 7.33325 3.99999H20.6666C21.3999 3.99999 21.9999 3.39999 21.9999 2.66666C21.9999 1.93333 21.3999 1.33333 20.6666 1.33333ZM21.4533 7.45333L27.8933 13.8933C28.3866 14.3867 28.6666 15.0667 28.6666 15.7733V28C28.6666 29.4667 27.4666 30.6667 25.9999 30.6667H11.3199C9.85325 30.6667 8.66658 29.4667 8.66658 28L8.67992 9.33333C8.67992 7.86666 9.86658 6.66666 11.3333 6.66666H19.5599C20.2666 6.66666 20.9466 6.94666 21.4533 7.45333ZM20.6666 16H26.6666L19.3333 8.66666V14.6667C19.3333 15.4 19.9333 16 20.6666 16Z" fill="url(#paint0_linear_681_18796)"/>
<defs>
<linearGradient id="paint0_linear_681_18796" x1="22.9577" y1="28.4444" x2="-1.82673" y2="27.738" gradientUnits="userSpaceOnUse">
<stop stop-color="#3A71CB"/>
<stop offset="1" stop-color="#6B99E6"/>
</linearGradient>
</defs>
</svg>
