<svg width="118" height="118" viewBox="0 0 118 118" fill="none" xmlns="http://www.w3.org/2000/svg">
<path d="M19.6667 29.5H9.83337V108.167H88.5V98.3333H19.6667V29.5Z" fill="#D8E2FF"/>
<path d="M29.5 9.83331V88.5H108.167V9.83331H29.5ZM66.4242 49.9533C68.44 46.3641 72.2259 44.25 74.4384 41.1033C76.7984 37.76 75.4709 31.565 68.8334 31.565C64.5067 31.565 62.3434 34.8591 61.4584 37.6125L54.7225 34.81C56.5909 29.3033 61.5567 24.5833 68.7842 24.5833C74.8317 24.5833 79.0109 27.3366 81.125 30.7783C82.9442 33.7283 83.9767 39.2841 81.1742 43.4141C78.0767 47.9866 75.1267 49.3633 73.5042 52.3133C72.865 53.4933 72.6192 54.28 72.6192 58.115H65.1459C65.195 56.0991 64.8509 52.805 66.4242 49.9533ZM63.6709 68.5875C63.6709 65.6866 65.9817 63.4741 68.8334 63.4741C71.7342 63.4741 73.9467 65.6866 73.9467 68.5875C73.9467 71.4391 71.7834 73.75 68.8334 73.75C65.9817 73.75 63.6709 71.4391 63.6709 68.5875Z" fill="#D8E2FF"/>
</svg>
